<svg width="1600" height="900" viewBox="0 0 1600 900" fill="none" xmlns="http://www.w3.org/2000/svg">
  <defs>
    <linearGradient id="bg" x1="92" y1="66" x2="1508" y2="836" gradientUnits="userSpaceOnUse">
      <stop stop-color="#EAF9F1"/>
      <stop offset="0.52" stop-color="#DDF2F5"/>
      <stop offset="1" stop-color="#8FBAF6"/>
    </linearGradient>
    <radialGradient id="glow" cx="0" cy="0" r="1" gradientUnits="userSpaceOnUse" gradientTransform="translate(1128 198) rotate(133.138) scale(544.074 418.486)">
      <stop stop-color="#FFFFFF" stop-opacity="0.88"/>
      <stop offset="1" stop-color="#FFFFFF" stop-opacity="0"/>
    </radialGradient>
    <linearGradient id="card" x1="1040" y1="166" x2="1358" y2="486" gradientUnits="userSpaceOnUse">
      <stop stop-color="#FFFFFF"/>
      <stop offset="1" stop-color="#F3F8FF"/>
    </linearGradient>
  </defs>
  <rect width="1600" height="900" rx="38" fill="url(#bg)"/>
  <rect width="1600" height="900" rx="38" fill="url(#glow)"/>
  <g opacity="0.18" stroke="#FFFFFF">
    <path d="M0 180H1600"/>
    <path d="M0 360H1600"/>
    <path d="M0 540H1600"/>
    <path d="M0 720H1600"/>
    <path d="M320 0V900"/>
    <path d="M640 0V900"/>
    <path d="M960 0V900"/>
    <path d="M1280 0V900"/>
  </g>
  <circle cx="1188" cy="178" r="116" fill="#FFFFFF" fill-opacity="0.7"/>
  <circle cx="1188" cy="178" r="76" fill="#EAF7F3"/>
  <rect x="1034" y="178" width="336" height="336" rx="40" fill="url(#card)" fill-opacity="0.96"/>
  <rect x="118" y="650" width="220" height="24" rx="12" fill="#FFFFFF" fill-opacity="0.42"/>
  <rect x="118" y="694" width="184" height="24" rx="12" fill="#FFFFFF" fill-opacity="0.34"/>
</svg>
