<svg width="1600" height="900" viewBox="0 0 1600 900" fill="none" xmlns="http://www.w3.org/2000/svg">
  <defs>
    <linearGradient id="bg" x1="40" y1="20" x2="1560" y2="880" gradientUnits="userSpaceOnUse">
      <stop stop-color="#2563EB"/>
      <stop offset="1" stop-color="#F97316"/>
    </linearGradient>
    <linearGradient id="bg-inner-agentOrch" x1="1074" y1="184" x2="1326" y2="436" gradientUnits="userSpaceOnUse">
      <stop stop-color="#2563EB"/>
      <stop offset="1" stop-color="#F97316"/>
    </linearGradient>
    <radialGradient id="glow" cx="0" cy="0" r="1" gradientUnits="userSpaceOnUse" gradientTransform="translate(1180 180) rotate(15) scale(430 230)">
      <stop stop-color="#FFE3CF" stop-opacity="0.18"/>
      <stop offset="1" stop-color="#FFE3CF" stop-opacity="0"/>
    </radialGradient>
    <filter id="shadow-orchBoard" x="0" y="0" width="1600" height="900" filterUnits="userSpaceOnUse" color-interpolation-filters="sRGB">
      <feDropShadow dx="0" dy="20" stdDeviation="18" flood-color="#2E2B5F" flood-opacity="0.22"/>
    </filter>
  </defs>
  <rect width="1600" height="900" rx="38" fill="url(#bg)"/>
  <rect width="1600" height="900" rx="38" fill="url(#glow)"/>
  <g opacity="0.10" stroke="#FFFFFF">
    <path d="M0 200H1600"/>
    <path d="M0 520H1600"/>
    <path d="M320 0V900"/>
    <path d="M1120 0V900"/>
  </g>
  <text x="120" y="318" fill="#FFFFFF" font-size="128" font-family="Arial, Helvetica, sans-serif" font-weight="800" letter-spacing="-5">Agent</text>
  <text x="120" y="446" fill="#FFFFFF" font-size="128" font-family="Arial, Helvetica, sans-serif" font-weight="800" letter-spacing="-5">Orchestration</text>
  <text x="126" y="548" fill="#FFF5EE" font-size="46" font-family="Arial, Helvetica, sans-serif" font-weight="600" textLength="790" lengthAdjust="spacingAndGlyphs">State / Budget / Confidence / Failure</text>

  <rect x="120" y="642" width="292" height="64" rx="32" fill="rgba(255,255,255,0.18)"/>
  <text x="164" y="685" fill="#FFFFFF" font-size="34" font-family="Arial, Helvetica, sans-serif" font-weight="700">System Notes</text>

  <g filter="url(#shadow-orchBoard)">
    <rect x="1040" y="150" width="320" height="320" rx="56" fill="#FFFDFC"/>
  </g>

  <rect x="1098" y="204" width="204" height="52" rx="16" fill="#2563EB"/>
  <text x="1162" y="238" fill="#FFFFFF" font-size="24" font-family="Arial, Helvetica, sans-serif" font-weight="800">Router</text>

  <rect x="1098" y="282" width="204" height="52" rx="16" fill="#4F46E5"/>
  <text x="1140" y="316" fill="#FFFFFF" font-size="24" font-family="Arial, Helvetica, sans-serif" font-weight="800">Workflow</text>

  <rect x="1098" y="360" width="204" height="52" rx="16" fill="#F97316"/>
  <text x="1170" y="394" fill="#FFFFFF" font-size="24" font-family="Arial, Helvetica, sans-serif" font-weight="800">Tools</text>

  <path d="M1200 256V282" stroke="#94A3B8" stroke-width="10" stroke-linecap="round"/>
  <path d="M1200 334V360" stroke="#94A3B8" stroke-width="10" stroke-linecap="round"/>
  <circle cx="1322" cy="230" r="12" fill="#2563EB"/>
  <circle cx="1322" cy="308" r="12" fill="#4F46E5"/>
  <circle cx="1322" cy="386" r="12" fill="#F97316"/>
</svg>
