<svg width="1600" height="900" viewBox="0 0 1600 900" fill="none" xmlns="http://www.w3.org/2000/svg">
  <defs>
    <linearGradient id="bg" x1="40" y1="20" x2="1560" y2="880" gradientUnits="userSpaceOnUse">
      <stop stop-color="#5B4CFF"/>
      <stop offset="1" stop-color="#FF6A88"/>
    </linearGradient>
    <linearGradient id="bg-inner-review" x1="1074" y1="184" x2="1326" y2="436" gradientUnits="userSpaceOnUse">
      <stop stop-color="#5B4CFF"/>
      <stop offset="1" stop-color="#FF6A88"/>
    </linearGradient>
    <radialGradient id="glow" cx="0" cy="0" r="1" gradientUnits="userSpaceOnUse" gradientTransform="translate(1180 190) rotate(15) scale(410 220)">
      <stop stop-color="#FFD8E8" stop-opacity="0.18"/>
      <stop offset="1" stop-color="#FFD8E8" stop-opacity="0"/>
    </radialGradient>
    <filter id="shadow-reviewBoard" x="0" y="0" width="1600" height="900" filterUnits="userSpaceOnUse" color-interpolation-filters="sRGB">
      <feDropShadow dx="0" dy="20" stdDeviation="18" flood-color="#39256F" flood-opacity="0.22"/>
    </filter>
  </defs>
  <rect width="1600" height="900" rx="38" fill="url(#bg)"/>
  <rect width="1600" height="900" rx="38" fill="url(#glow)"/>
  <g opacity="0.10" stroke="#FFFFFF">
    <path d="M0 200H1600"/>
    <path d="M0 520H1600"/>
    <path d="M320 0V900"/>
    <path d="M1120 0V900"/>
  </g>
  <text x="120" y="318" fill="#FFFFFF" font-size="128" font-family="Arial, Helvetica, sans-serif" font-weight="800" letter-spacing="-5">Team</text>
  <text x="120" y="446" fill="#FFFFFF" font-size="128" font-family="Arial, Helvetica, sans-serif" font-weight="800" letter-spacing="-5">Review</text>
  <text x="126" y="548" fill="#FFF1F7" font-size="46" font-family="Arial, Helvetica, sans-serif" font-weight="600" textLength="790" lengthAdjust="spacingAndGlyphs">PM / Agent / Handoff / Review / Process</text>

  <rect x="120" y="642" width="318" height="64" rx="32" fill="rgba(255,255,255,0.18)"/>
  <text x="164" y="685" fill="#FFFFFF" font-size="34" font-family="Arial, Helvetica, sans-serif" font-weight="700">Team Dynamics</text>

  <g filter="url(#shadow-reviewBoard)">
    <rect x="1040" y="150" width="320" height="320" rx="56" fill="#FFFDFC"/>
  </g>

  <rect x="1092" y="214" width="84" height="54" rx="16" fill="#5B4CFF"/>
  <text x="1118" y="249" fill="#FFFFFF" font-size="24" font-family="Arial, Helvetica, sans-serif" font-weight="800">PM</text>

  <rect x="1192" y="214" width="84" height="54" rx="16" fill="#FF6A88"/>
  <text x="1224" y="249" fill="#FFFFFF" font-size="24" font-family="Arial, Helvetica, sans-serif" font-weight="800">A</text>

  <rect x="1142" y="292" width="84" height="54" rx="16" fill="#FFC341"/>
  <text x="1174" y="327" fill="#5A2C00" font-size="24" font-family="Arial, Helvetica, sans-serif" font-weight="800">B</text>

  <path d="M1134 268L1168 292" stroke="#5B4CFF" stroke-width="10" stroke-linecap="round"/>
  <path d="M1234 268L1200 292" stroke="#FF6A88" stroke-width="10" stroke-linecap="round"/>

  <path d="M1104 396H1296" stroke="#E7E0FF" stroke-width="18" stroke-linecap="round"/>
  <path d="M1104 396H1256" stroke="#5B4CFF" stroke-width="18" stroke-linecap="round"/>
  <circle cx="1258" cy="396" r="16" fill="#FF6A88"/>
</svg>
