<svg width="1600" height="900" viewBox="0 0 1600 900" fill="none" xmlns="http://www.w3.org/2000/svg">
  <defs>
    <linearGradient id="bg" x1="40" y1="20" x2="1560" y2="880" gradientUnits="userSpaceOnUse">
      <stop stop-color="#30C39E"/>
      <stop offset="1" stop-color="#2E86FF"/>
    </linearGradient>
    <linearGradient id="bg-inner-motionBot" x1="1074" y1="184" x2="1326" y2="436" gradientUnits="userSpaceOnUse">
      <stop stop-color="#30C39E"/>
      <stop offset="1" stop-color="#2E86FF"/>
    </linearGradient>
    <radialGradient id="glow" cx="0" cy="0" r="1" gradientUnits="userSpaceOnUse" gradientTransform="translate(430 170) rotate(15) scale(440 220)">
      <stop stop-color="#D8FFF0" stop-opacity="0.18"/>
      <stop offset="1" stop-color="#D8FFF0" stop-opacity="0"/>
    </radialGradient>
    <filter id="shadow-refactorBars" x="0" y="0" width="1600" height="900" filterUnits="userSpaceOnUse" color-interpolation-filters="sRGB">
      <feDropShadow dx="0" dy="20" stdDeviation="18" flood-color="#1B4E68" flood-opacity="0.22"/>
    </filter>
  </defs>
  <rect width="1600" height="900" rx="38" fill="url(#bg)"/>
  <rect width="1600" height="900" rx="38" fill="url(#glow)"/>
  <g opacity="0.10" stroke="#FFFFFF">
    <path d="M0 200H1600"/>
    <path d="M0 520H1600"/>
    <path d="M320 0V900"/>
    <path d="M1120 0V900"/>
  </g>
  <text x="120" y="318" fill="#FFFFFF" font-size="128" font-family="Arial, Helvetica, sans-serif" font-weight="800" letter-spacing="-5">Chart</text>
  <text x="120" y="446" fill="#FFFFFF" font-size="128" font-family="Arial, Helvetica, sans-serif" font-weight="800" letter-spacing="-5">Refactor</text>
  <text x="126" y="548" fill="#F1FFFD" font-size="48" font-family="Arial, Helvetica, sans-serif" font-weight="600" textLength="790" lengthAdjust="spacingAndGlyphs">Config / Decomposition / Maintainability</text>
  
  <rect x="120" y="642" width="284" height="64" rx="32" fill="rgba(255,255,255,0.18)"/>
  <text x="164" y="685" fill="#FFFFFF" font-size="34" font-family="Arial, Helvetica, sans-serif" font-weight="700">Refactor Log</text>
  
  
  <g filter="url(#shadow-refactorBars)">
    <rect x="1040" y="150" width="320" height="320" rx="56" fill="#FFFDFC"/>
  </g>
  <path d="M1114 386H1284" stroke="#1F4EFF" stroke-width="18" stroke-linecap="round"/>
  <path d="M1114 330H1246" stroke="#30C39E" stroke-width="18" stroke-linecap="round"/>
  <path d="M1114 274H1204" stroke="#19334F" stroke-width="18" stroke-linecap="round"/>
  <rect x="1100" y="254" width="22" height="152" rx="11" fill="#EAF6FF"/>
</svg>