<svg width="1600" height="900" viewBox="0 0 1600 900" fill="none" xmlns="http://www.w3.org/2000/svg">
  <defs>
    <linearGradient id="bg" x1="40" y1="20" x2="1560" y2="880" gradientUnits="userSpaceOnUse">
      <stop stop-color="#3B82F6"/>
      <stop offset="1" stop-color="#0EA5A5"/>
    </linearGradient>
    <linearGradient id="bg-inner-motionBot" x1="1074" y1="184" x2="1326" y2="436" gradientUnits="userSpaceOnUse">
      <stop stop-color="#3B82F6"/>
      <stop offset="1" stop-color="#0EA5A5"/>
    </linearGradient>
    <radialGradient id="glow" cx="0" cy="0" r="1" gradientUnits="userSpaceOnUse" gradientTransform="translate(1160 180) rotate(15) scale(410 210)">
      <stop stop-color="#D7F6FF" stop-opacity="0.18"/>
      <stop offset="1" stop-color="#D7F6FF" stop-opacity="0"/>
    </radialGradient>
    <filter id="shadow-milestoneBars" x="0" y="0" width="1600" height="900" filterUnits="userSpaceOnUse" color-interpolation-filters="sRGB">
      <feDropShadow dx="0" dy="20" stdDeviation="18" flood-color="#224E68" flood-opacity="0.22"/>
    </filter>
  </defs>
  <rect width="1600" height="900" rx="38" fill="url(#bg)"/>
  <rect width="1600" height="900" rx="38" fill="url(#glow)"/>
  <g opacity="0.10" stroke="#FFFFFF">
    <path d="M0 200H1600"/>
    <path d="M0 520H1600"/>
    <path d="M320 0V900"/>
    <path d="M1120 0V900"/>
  </g>
  <text x="120" y="318" fill="#FFFFFF" font-size="128" font-family="Arial, Helvetica, sans-serif" font-weight="800" letter-spacing="-5">Engineering</text>
  <text x="120" y="446" fill="#FFFFFF" font-size="128" font-family="Arial, Helvetica, sans-serif" font-weight="800" letter-spacing="-5">Milestone</text>
  <text x="126" y="548" fill="#F2FFFF" font-size="46" font-family="Arial, Helvetica, sans-serif" font-weight="600" textLength="770" lengthAdjust="spacingAndGlyphs">Testing / UI / Tooling / Workflow</text>
  
  <rect x="120" y="642" width="332" height="64" rx="32" fill="rgba(255,255,255,0.18)"/>
  <text x="164" y="685" fill="#FFFFFF" font-size="34" font-family="Arial, Helvetica, sans-serif" font-weight="700">Project Progress</text>
  
  
  <g filter="url(#shadow-milestoneBars)">
    <rect x="1040" y="150" width="320" height="320" rx="56" fill="#FFFDFC"/>
  </g>
  <rect x="1106" y="222" width="60" height="190" rx="18" fill="#0EA5A5"/>
  <rect x="1182" y="288" width="60" height="124" rx="18" fill="#3B82F6"/>
  <rect x="1258" y="250" width="60" height="162" rx="18" fill="#173B58"/>
</svg>