<svg width="1600" height="900" viewBox="0 0 1600 900" fill="none" xmlns="http://www.w3.org/2000/svg">
  <defs>
    <linearGradient id="bg" x1="40" y1="20" x2="1560" y2="880" gradientUnits="userSpaceOnUse">
      <stop stop-color="#5B4CFF"/>
      <stop offset="1" stop-color="#FF6A88"/>
    </linearGradient>
    <linearGradient id="bg-inner-motionBot" x1="1074" y1="184" x2="1326" y2="436" gradientUnits="userSpaceOnUse">
      <stop stop-color="#5B4CFF"/>
      <stop offset="1" stop-color="#FF6A88"/>
    </linearGradient>
    <radialGradient id="glow" cx="0" cy="0" r="1" gradientUnits="userSpaceOnUse" gradientTransform="translate(420 700) rotate(15) scale(470 250)">
      <stop stop-color="#FFD3E5" stop-opacity="0.18"/>
      <stop offset="1" stop-color="#FFD3E5" stop-opacity="0"/>
    </radialGradient>
    <filter id="shadow-network" x="0" y="0" width="1600" height="900" filterUnits="userSpaceOnUse" color-interpolation-filters="sRGB">
      <feDropShadow dx="0" dy="20" stdDeviation="18" flood-color="#39256F" flood-opacity="0.22"/>
    </filter>
  </defs>
  <rect width="1600" height="900" rx="38" fill="url(#bg)"/>
  <rect width="1600" height="900" rx="38" fill="url(#glow)"/>
  <g opacity="0.10" stroke="#FFFFFF">
    <path d="M0 200H1600"/>
    <path d="M0 520H1600"/>
    <path d="M320 0V900"/>
    <path d="M1120 0V900"/>
  </g>
  <text x="120" y="318" fill="#FFFFFF" font-size="128" font-family="Arial, Helvetica, sans-serif" font-weight="800" letter-spacing="-5">Tech</text>
  <text x="120" y="446" fill="#FFFFFF" font-size="128" font-family="Arial, Helvetica, sans-serif" font-weight="800" letter-spacing="-5">Discovery</text>
  <text x="126" y="548" fill="#FFF1F7" font-size="48" font-family="Arial, Helvetica, sans-serif" font-weight="600" textLength="790" lengthAdjust="spacingAndGlyphs">AI Architecture / Agent / Tool Calling</text>
  
  <rect x="120" y="642" width="340" height="64" rx="32" fill="rgba(255,255,255,0.18)"/>
  <text x="164" y="685" fill="#FFFFFF" font-size="34" font-family="Arial, Helvetica, sans-serif" font-weight="700">Architecture Notes</text>
  
  
  <g filter="url(#shadow-network)">
    <rect x="1040" y="150" width="320" height="320" rx="56" fill="#FFFDFC"/>
  </g>
  <circle cx="1202" cy="228" r="42" fill="#5B4CFF" opacity="0.24"/>
  <circle cx="1142" cy="344" r="42" fill="#FF6A88" opacity="0.24"/>
  <circle cx="1260" cy="344" r="42" fill="#FFC341" opacity="0.32"/>
  <path d="M1202 270L1142 300" stroke="#5B4CFF" stroke-width="12" stroke-linecap="round"/>
  <path d="M1202 270L1260 300" stroke="#FF6A88" stroke-width="12" stroke-linecap="round"/>
</svg>