<svg width="1600" height="900" viewBox="0 0 1600 900" fill="none" xmlns="http://www.w3.org/2000/svg">
  <defs>
    <linearGradient id="bg" x1="72" y1="56" x2="1514" y2="844" gradientUnits="userSpaceOnUse">
      <stop stop-color="#3F2305"/>
      <stop offset="0.56" stop-color="#9A3412"/>
      <stop offset="1" stop-color="#1D9A8A"/>
    </linearGradient>
    <radialGradient id="glow" cx="0" cy="0" r="1" gradientUnits="userSpaceOnUse" gradientTransform="translate(1200 220) rotate(18) scale(430 250)">
      <stop stop-color="#FDE7C3" stop-opacity="0.30"/>
      <stop offset="1" stop-color="#FDE7C3" stop-opacity="0"/>
    </radialGradient>
    <linearGradient id="card" x1="1010" y1="132" x2="1376" y2="480" gradientUnits="userSpaceOnUse">
      <stop stop-color="#FFF9EF"/>
      <stop offset="1" stop-color="#FFF0D9"/>
    </linearGradient>
    <filter id="shadow" x="0" y="0" width="1600" height="900" filterUnits="userSpaceOnUse" color-interpolation-filters="sRGB">
      <feDropShadow dx="0" dy="24" stdDeviation="24" flood-color="#2D1605" flood-opacity="0.24"/>
    </filter>
  </defs>

  <rect width="1600" height="900" rx="38" fill="url(#bg)"/>
  <rect width="1600" height="900" rx="38" fill="url(#glow)"/>

  <g opacity="0.08" stroke="#FFF7ED">
    <path d="M0 186H1600"/>
    <path d="M0 520H1600"/>
    <path d="M340 0V900"/>
    <path d="M1110 0V900"/>
  </g>

  <text x="118" y="308" fill="#FFFFFF" font-size="116" font-family="Arial, Helvetica, sans-serif" font-weight="800" letter-spacing="-4">Dorm Mustang</text>
  <text x="118" y="432" fill="#FFFFFF" font-size="116" font-family="Arial, Helvetica, sans-serif" font-weight="800" letter-spacing="-4">Harness Moment</text>
  <text x="124" y="530" fill="#FFECD4" font-size="40" font-family="Arial, Helvetica, sans-serif" font-weight="600" textLength="804" lengthAdjust="spacingAndGlyphs">Harness / Guardrails / FOMO / Student Builder</text>

  <rect x="118" y="624" width="236" height="62" rx="31" fill="#FFFFFF" fill-opacity="0.16"/>
  <text x="160" y="666" fill="#FFFFFF" font-size="32" font-family="Arial, Helvetica, sans-serif" font-weight="700">Essay Fragment</text>

  <g filter="url(#shadow)">
    <rect x="1012" y="132" width="358" height="360" rx="54" fill="url(#card)"/>
  </g>

  <rect x="1070" y="182" width="244" height="34" rx="17" fill="#D97706" fill-opacity="0.18"/>
  <rect x="1096" y="172" width="84" height="54" rx="18" fill="#B45309"/>
  <text x="1118" y="208" fill="#FFFFFF" font-size="24" font-family="Arial, Helvetica, sans-serif" font-weight="800">WILD</text>
  <rect x="1200" y="172" width="98" height="54" rx="18" fill="#0F766E"/>
  <text x="1218" y="208" fill="#FFFFFF" font-size="24" font-family="Arial, Helvetica, sans-serif" font-weight="800">SADDLE</text>

  <path d="M1110 364C1110 300 1168 252 1239 252C1290 252 1330 274 1348 314C1360 340 1357 371 1342 396C1328 419 1304 434 1276 439L1266 462H1217L1226 435C1181 429 1141 407 1122 372C1114 359 1110 347 1110 364Z" fill="#1F2937"/>
  <path d="M1258 462H1312C1321 462 1328 469 1328 478V490H1254L1258 462Z" fill="#0F172A"/>
  <path d="M1178 302C1204 284 1228 277 1256 281C1237 302 1228 323 1227 344H1198C1191 344 1184 339 1181 332L1170 317C1166 311 1170 302 1178 302Z" fill="#FFF7ED"/>
  <path d="M1170 339H1298" stroke="#F59E0B" stroke-width="18" stroke-linecap="round"/>
  <path d="M1194 398H1306" stroke="#14B8A6" stroke-width="18" stroke-linecap="round"/>
  <path d="M1248 340V488" stroke="#94A3B8" stroke-width="14" stroke-linecap="round"/>
  <circle cx="1248" cy="372" r="28" fill="#FFFFFF"/>
  <circle cx="1248" cy="372" r="14" fill="#64748B"/>

  <rect x="1132" y="548" width="136" height="52" rx="20" fill="#FFFFFF"/>
  <text x="1154" y="582" fill="#334155" font-size="22" font-family="Arial, Helvetica, sans-serif" font-weight="800">retry / stop</text>
  <rect x="1084" y="626" width="214" height="18" rx="9" fill="#D97706"/>
  <rect x="1308" y="626" width="42" height="18" rx="9" fill="#0F766E"/>
</svg>
