<svg width="1600" height="900" viewBox="0 0 1600 900" fill="none" xmlns="http://www.w3.org/2000/svg">
  <defs>
    <linearGradient id="bg" x1="40" y1="20" x2="1560" y2="880" gradientUnits="userSpaceOnUse">
      <stop stop-color="#30C39E"/>
      <stop offset="1" stop-color="#2563EB"/>
    </linearGradient>
    <linearGradient id="bg-inner-preprocess" x1="1074" y1="184" x2="1326" y2="436" gradientUnits="userSpaceOnUse">
      <stop stop-color="#30C39E"/>
      <stop offset="1" stop-color="#2563EB"/>
    </linearGradient>
    <radialGradient id="glow" cx="0" cy="0" r="1" gradientUnits="userSpaceOnUse" gradientTransform="translate(1180 176) rotate(15) scale(430 230)">
      <stop stop-color="#D8FFF0" stop-opacity="0.2"/>
      <stop offset="1" stop-color="#D8FFF0" stop-opacity="0"/>
    </radialGradient>
    <filter id="shadow-preprocessBoard" x="0" y="0" width="1600" height="900" filterUnits="userSpaceOnUse" color-interpolation-filters="sRGB">
      <feDropShadow dx="0" dy="20" stdDeviation="18" flood-color="#214B6A" flood-opacity="0.22"/>
    </filter>
  </defs>
  <rect width="1600" height="900" rx="38" fill="url(#bg)"/>
  <rect width="1600" height="900" rx="38" fill="url(#glow)"/>
  <g opacity="0.10" stroke="#FFFFFF">
    <path d="M0 200H1600"/>
    <path d="M0 520H1600"/>
    <path d="M320 0V900"/>
    <path d="M1120 0V900"/>
  </g>
  <text x="120" y="318" fill="#FFFFFF" font-size="128" font-family="Arial, Helvetica, sans-serif" font-weight="800" letter-spacing="-5">Smart</text>
  <text x="120" y="446" fill="#FFFFFF" font-size="128" font-family="Arial, Helvetica, sans-serif" font-weight="800" letter-spacing="-5">Preprocess</text>
  <text x="126" y="548" fill="#F1FFFD" font-size="46" font-family="Arial, Helvetica, sans-serif" font-weight="600" textLength="790" lengthAdjust="spacingAndGlyphs">Schema / State / Confirm / Replay</text>

  <rect x="120" y="642" width="286" height="64" rx="32" fill="rgba(255,255,255,0.18)"/>
  <text x="164" y="685" fill="#FFFFFF" font-size="34" font-family="Arial, Helvetica, sans-serif" font-weight="700">Pipeline Notes</text>

  <g filter="url(#shadow-preprocessBoard)">
    <rect x="1040" y="150" width="320" height="320" rx="56" fill="#FFFDFC"/>
  </g>

  <rect x="1098" y="198" width="136" height="56" rx="18" fill="#30C39E"/>
  <text x="1140" y="234" fill="#FFFFFF" font-size="24" font-family="Arial, Helvetica, sans-serif" font-weight="800">AUTO</text>

  <rect x="1098" y="278" width="136" height="56" rx="18" fill="#2563EB"/>
  <text x="1148" y="314" fill="#FFFFFF" font-size="24" font-family="Arial, Helvetica, sans-serif" font-weight="800">ASK</text>

  <rect x="1098" y="358" width="136" height="56" rx="18" fill="#19334F"/>
  <text x="1132" y="394" fill="#FFFFFF" font-size="24" font-family="Arial, Helvetica, sans-serif" font-weight="800">INFORM</text>

  <path d="M1234 226H1288" stroke="#94A3B8" stroke-width="10" stroke-linecap="round"/>
  <path d="M1234 306H1288" stroke="#94A3B8" stroke-width="10" stroke-linecap="round"/>
  <path d="M1234 386H1288" stroke="#94A3B8" stroke-width="10" stroke-linecap="round"/>

  <rect x="1280" y="206" width="38" height="38" rx="12" fill="#E8F7F2"/>
  <rect x="1280" y="286" width="38" height="38" rx="12" fill="#E7F0FF"/>
  <rect x="1280" y="366" width="38" height="38" rx="12" fill="#E8EDF3"/>
</svg>
