<svg width="1600" height="900" viewBox="0 0 1600 900" fill="none" xmlns="http://www.w3.org/2000/svg">
  <defs>
    <linearGradient id="bg" x1="40" y1="20" x2="1560" y2="880" gradientUnits="userSpaceOnUse">
      <stop stop-color="#2563EB"/>
      <stop offset="1" stop-color="#7C3AED"/>
    </linearGradient>
    <linearGradient id="bg-inner-schema" x1="1074" y1="184" x2="1326" y2="436" gradientUnits="userSpaceOnUse">
      <stop stop-color="#2563EB"/>
      <stop offset="1" stop-color="#7C3AED"/>
    </linearGradient>
    <radialGradient id="glow" cx="0" cy="0" r="1" gradientUnits="userSpaceOnUse" gradientTransform="translate(1180 190) rotate(15) scale(410 220)">
      <stop stop-color="#D9E7FF" stop-opacity="0.18"/>
      <stop offset="1" stop-color="#D9E7FF" stop-opacity="0"/>
    </radialGradient>
    <filter id="shadow-schemaBoard" x="0" y="0" width="1600" height="900" filterUnits="userSpaceOnUse" color-interpolation-filters="sRGB">
      <feDropShadow dx="0" dy="20" stdDeviation="18" flood-color="#24356F" flood-opacity="0.22"/>
    </filter>
  </defs>
  <rect width="1600" height="900" rx="38" fill="url(#bg)"/>
  <rect width="1600" height="900" rx="38" fill="url(#glow)"/>
  <g opacity="0.10" stroke="#FFFFFF">
    <path d="M0 200H1600"/>
    <path d="M0 520H1600"/>
    <path d="M320 0V900"/>
    <path d="M1120 0V900"/>
  </g>
  <text x="120" y="318" fill="#FFFFFF" font-size="128" font-family="Arial, Helvetica, sans-serif" font-weight="800" letter-spacing="-5">JSON</text>
  <text x="120" y="446" fill="#FFFFFF" font-size="128" font-family="Arial, Helvetica, sans-serif" font-weight="800" letter-spacing="-5">Schema</text>
  <text x="126" y="548" fill="#EEF3FF" font-size="46" font-family="Arial, Helvetica, sans-serif" font-weight="600" textLength="790" lengthAdjust="spacingAndGlyphs">LLM / Structured Output / Contract / Validation</text>

  <rect x="120" y="642" width="308" height="64" rx="32" fill="rgba(255,255,255,0.18)"/>
  <text x="164" y="685" fill="#FFFFFF" font-size="34" font-family="Arial, Helvetica, sans-serif" font-weight="700">Schema Notes</text>

  <g filter="url(#shadow-schemaBoard)">
    <rect x="1040" y="150" width="320" height="320" rx="56" fill="#FFFDFC"/>
  </g>

  <rect x="1098" y="216" width="204" height="48" rx="16" fill="#1D4ED8"/>
  <text x="1148" y="248" fill="#FFFFFF" font-size="24" font-family="Arial, Helvetica, sans-serif" font-weight="700">{ type: "object" }</text>

  <rect x="1098" y="286" width="170" height="42" rx="14" fill="#E0E7FF"/>
  <text x="1126" y="314" fill="#312E81" font-size="22" font-family="Arial, Helvetica, sans-serif" font-weight="700">required</text>

  <rect x="1098" y="346" width="118" height="42" rx="14" fill="#DDD6FE"/>
  <text x="1134" y="374" fill="#5B21B6" font-size="22" font-family="Arial, Helvetica, sans-serif" font-weight="700">enum</text>

  <rect x="1230" y="346" width="72" height="42" rx="14" fill="#C7D2FE"/>
  <text x="1248" y="374" fill="#1E3A8A" font-size="22" font-family="Arial, Helvetica, sans-serif" font-weight="700">[]</text>
</svg>
