<svg width="1600" height="900" viewBox="0 0 1600 900" fill="none" xmlns="http://www.w3.org/2000/svg">
  <defs>
    <linearGradient id="bg" x1="40" y1="20" x2="1560" y2="880" gradientUnits="userSpaceOnUse">
      <stop stop-color="#2563EB"/>
      <stop offset="1" stop-color="#0EA5A5"/>
    </linearGradient>
    <linearGradient id="bg-inner-dll" x1="1074" y1="184" x2="1326" y2="436" gradientUnits="userSpaceOnUse">
      <stop stop-color="#2563EB"/>
      <stop offset="1" stop-color="#0EA5A5"/>
    </linearGradient>
    <radialGradient id="glow" cx="0" cy="0" r="1" gradientUnits="userSpaceOnUse" gradientTransform="translate(1190 190) rotate(15) scale(410 220)">
      <stop stop-color="#D8F8FF" stop-opacity="0.18"/>
      <stop offset="1" stop-color="#D8F8FF" stop-opacity="0"/>
    </radialGradient>
    <filter id="shadow-dllBoard" x="0" y="0" width="1600" height="900" filterUnits="userSpaceOnUse" color-interpolation-filters="sRGB">
      <feDropShadow dx="0" dy="20" stdDeviation="18" flood-color="#1B4C67" flood-opacity="0.22"/>
    </filter>
  </defs>
  <rect width="1600" height="900" rx="38" fill="url(#bg)"/>
  <rect width="1600" height="900" rx="38" fill="url(#glow)"/>
  <g opacity="0.10" stroke="#FFFFFF">
    <path d="M0 200H1600"/>
    <path d="M0 520H1600"/>
    <path d="M320 0V900"/>
    <path d="M1120 0V900"/>
  </g>
  <text x="120" y="318" fill="#FFFFFF" font-size="128" font-family="Arial, Helvetica, sans-serif" font-weight="800" letter-spacing="-5">DLL</text>
  <text x="120" y="446" fill="#FFFFFF" font-size="128" font-family="Arial, Helvetica, sans-serif" font-weight="800" letter-spacing="-5">Conflict</text>
  <text x="126" y="548" fill="#F2FFFF" font-size="46" font-family="Arial, Helvetica, sans-serif" font-weight="600" textLength="790" lengthAdjust="spacingAndGlyphs">Windows / ChromaDB / RAG / Bugfix</text>

  <rect x="120" y="642" width="274" height="64" rx="32" fill="rgba(255,255,255,0.18)"/>
  <text x="164" y="685" fill="#FFFFFF" font-size="34" font-family="Arial, Helvetica, sans-serif" font-weight="700">Debug Log</text>

  <g filter="url(#shadow-dllBoard)">
    <rect x="1040" y="150" width="320" height="320" rx="56" fill="#FFFDFC"/>
  </g>

  <rect x="1100" y="228" width="90" height="42" rx="14" fill="#173B58"/>
  <text x="1122" y="257" fill="#FFFFFF" font-size="24" font-family="Arial, Helvetica, sans-serif" font-weight="700">MKL</text>

  <rect x="1208" y="228" width="94" height="42" rx="14" fill="#2563EB"/>
  <text x="1222" y="257" fill="#FFFFFF" font-size="24" font-family="Arial, Helvetica, sans-serif" font-weight="700">ONNX</text>

  <path d="M1152 288V358" stroke="#173B58" stroke-width="20" stroke-linecap="round"/>
  <path d="M1254 288V358" stroke="#2563EB" stroke-width="20" stroke-linecap="round"/>
  <path d="M1152 328H1254" stroke="#F97316" stroke-width="18" stroke-linecap="round"/>

  <circle cx="1204" cy="390" r="34" fill="#0EA5A5"/>
  <path d="M1188 390H1220" stroke="#FFFFFF" stroke-width="10" stroke-linecap="round"/>
</svg>
