<svg width="1600" height="900" viewBox="0 0 1600 900" fill="none" xmlns="http://www.w3.org/2000/svg">
  <defs>
    <linearGradient id="bg" x1="40" y1="20" x2="1560" y2="880" gradientUnits="userSpaceOnUse">
      <stop stop-color="#4361EE"/>
      <stop offset="1" stop-color="#FF7A8A"/>
    </linearGradient>
    <linearGradient id="bg-inner-motionBot" x1="1074" y1="184" x2="1326" y2="436" gradientUnits="userSpaceOnUse">
      <stop stop-color="#4361EE"/>
      <stop offset="1" stop-color="#FF7A8A"/>
    </linearGradient>
    <radialGradient id="glow" cx="0" cy="0" r="1" gradientUnits="userSpaceOnUse" gradientTransform="translate(1160 180) rotate(15) scale(430 230)">
      <stop stop-color="#FFD7E5" stop-opacity="0.2"/>
      <stop offset="1" stop-color="#FFD7E5" stop-opacity="0"/>
    </radialGradient>
    <filter id="shadow-heartWave" x="0" y="0" width="1600" height="900" filterUnits="userSpaceOnUse" color-interpolation-filters="sRGB">
      <feDropShadow dx="0" dy="20" stdDeviation="18" flood-color="#33246B" flood-opacity="0.22"/>
    </filter>
  </defs>
  <rect width="1600" height="900" rx="38" fill="url(#bg)"/>
  <rect width="1600" height="900" rx="38" fill="url(#glow)"/>
  <g opacity="0.10" stroke="#FFFFFF">
    <path d="M0 200H1600"/>
    <path d="M0 520H1600"/>
    <path d="M320 0V900"/>
    <path d="M1120 0V900"/>
  </g>
  <text x="120" y="318" fill="#FFFFFF" font-size="128" font-family="Arial, Helvetica, sans-serif" font-weight="800" letter-spacing="-5">Love</text>
  <text x="120" y="446" fill="#FFFFFF" font-size="128" font-family="Arial, Helvetica, sans-serif" font-weight="800" letter-spacing="-5">In Waves</text>
  <text x="126" y="548" fill="#FFF2F7" font-size="48" font-family="Arial, Helvetica, sans-serif" font-weight="600" textLength="790" lengthAdjust="spacingAndGlyphs">Emotion / Rhythm / Honesty / Boundaries</text>
  
  <rect x="120" y="642" width="248" height="64" rx="32" fill="rgba(255,255,255,0.18)"/>
  <text x="164" y="685" fill="#FFFFFF" font-size="34" font-family="Arial, Helvetica, sans-serif" font-weight="700">Fragments</text>
  
  
  <g filter="url(#shadow-heartWave)">
    <rect x="1040" y="150" width="320" height="320" rx="56" fill="#FFFDFC"/>
  </g>
  <path d="M1122 398C1158 358, 1190 368, 1220 326C1242 298, 1272 278, 1318 306" stroke="#FF7A8A" stroke-width="18" stroke-linecap="round" stroke-linejoin="round"/>
  <path d="M1122 364C1160 324, 1194 334, 1224 294C1246 266, 1276 248, 1318 276" stroke="#4361EE" stroke-width="14" stroke-linecap="round" stroke-linejoin="round" opacity="0.82"/>
  <path d="M1200 266C1188 238, 1148 238, 1148 276C1148 314, 1200 344, 1200 344C1200 344, 1252 314, 1252 276C1252 238, 1212 238, 1200 266Z" fill="#FFFFFF"/>
  <circle cx="1136" cy="416" r="14" fill="#FFFFFF" opacity="0.92"/>
  <circle cx="1318" cy="306" r="16" fill="#FFFFFF" opacity="0.88"/>
</svg>