<svg width="1600" height="900" viewBox="0 0 1600 900" fill="none" xmlns="http://www.w3.org/2000/svg">
  <defs>
    <linearGradient id="bg" x1="40" y1="20" x2="1560" y2="880" gradientUnits="userSpaceOnUse">
      <stop stop-color="#0F766E"/>
      <stop offset="1" stop-color="#1D4ED8"/>
    </linearGradient>
    <linearGradient id="bg-inner-ragCard" x1="1074" y1="184" x2="1326" y2="436" gradientUnits="userSpaceOnUse">
      <stop stop-color="#0F766E"/>
      <stop offset="1" stop-color="#1D4ED8"/>
    </linearGradient>
    <radialGradient id="glow" cx="0" cy="0" r="1" gradientUnits="userSpaceOnUse" gradientTransform="translate(1180 200) rotate(15) scale(400 220)">
      <stop stop-color="#D6FAF4" stop-opacity="0.18"/>
      <stop offset="1" stop-color="#D6FAF4" stop-opacity="0"/>
    </radialGradient>
    <filter id="shadow-ragCardBoard" x="0" y="0" width="1600" height="900" filterUnits="userSpaceOnUse" color-interpolation-filters="sRGB">
      <feDropShadow dx="0" dy="20" stdDeviation="18" flood-color="#1E3A5F" flood-opacity="0.22"/>
    </filter>
  </defs>
  <rect width="1600" height="900" rx="38" fill="url(#bg)"/>
  <rect width="1600" height="900" rx="38" fill="url(#glow)"/>
  <g opacity="0.10" stroke="#FFFFFF">
    <path d="M0 200H1600"/>
    <path d="M0 520H1600"/>
    <path d="M320 0V900"/>
    <path d="M1120 0V900"/>
  </g>
  <text x="120" y="318" fill="#FFFFFF" font-size="128" font-family="Arial, Helvetica, sans-serif" font-weight="800" letter-spacing="-5">RAG</text>
  <text x="120" y="446" fill="#FFFFFF" font-size="128" font-family="Arial, Helvetica, sans-serif" font-weight="800" letter-spacing="-5">Reading Notes</text>
  <text x="126" y="548" fill="#E6F7FF" font-size="46" font-family="Arial, Helvetica, sans-serif" font-weight="600" textLength="790" lengthAdjust="spacingAndGlyphs">Retrieval / Memory / DPR / Sequence / Token</text>

  <rect x="120" y="642" width="292" height="64" rx="32" fill="rgba(255,255,255,0.18)"/>
  <text x="164" y="685" fill="#FFFFFF" font-size="34" font-family="Arial, Helvetica, sans-serif" font-weight="700">Paper Notes</text>

  <g filter="url(#shadow-ragCardBoard)">
    <rect x="1040" y="150" width="320" height="320" rx="56" fill="#FFFDFC"/>
  </g>

  <rect x="1100" y="212" width="200" height="60" rx="18" fill="#0F766E"/>
  <text x="1148" y="250" fill="#FFFFFF" font-size="26" font-family="Arial, Helvetica, sans-serif" font-weight="800">QUERY</text>

  <rect x="1100" y="292" width="200" height="60" rx="18" fill="#1D4ED8"/>
  <text x="1158" y="330" fill="#FFFFFF" font-size="26" font-family="Arial, Helvetica, sans-serif" font-weight="800">TOP-K</text>

  <rect x="1100" y="372" width="200" height="60" rx="18" fill="#14B8A6"/>
  <text x="1142" y="410" fill="#FFFFFF" font-size="26" font-family="Arial, Helvetica, sans-serif" font-weight="800">ANSWER</text>

  <path d="M1300 242H1334" stroke="#94A3B8" stroke-width="10" stroke-linecap="round"/>
  <path d="M1300 322H1334" stroke="#94A3B8" stroke-width="10" stroke-linecap="round"/>

  <circle cx="1336" cy="242" r="12" fill="#0F766E"/>
  <circle cx="1336" cy="322" r="12" fill="#1D4ED8"/>
  <circle cx="1336" cy="402" r="12" fill="#14B8A6"/>
</svg>
