<svg width="1600" height="900" viewBox="0 0 1600 900" fill="none" xmlns="http://www.w3.org/2000/svg">
  <defs>
    <linearGradient id="bg" x1="40" y1="20" x2="1560" y2="880" gradientUnits="userSpaceOnUse">
      <stop stop-color="#0F766E"/>
      <stop offset="1" stop-color="#EA580C"/>
    </linearGradient>
    <linearGradient id="bg-inner-sandboxBug" x1="1074" y1="184" x2="1326" y2="436" gradientUnits="userSpaceOnUse">
      <stop stop-color="#0F766E"/>
      <stop offset="1" stop-color="#EA580C"/>
    </linearGradient>
    <radialGradient id="glow" cx="0" cy="0" r="1" gradientUnits="userSpaceOnUse" gradientTransform="translate(1185 190) rotate(15) scale(400 220)">
      <stop stop-color="#FFE7D6" stop-opacity="0.18"/>
      <stop offset="1" stop-color="#FFE7D6" stop-opacity="0"/>
    </radialGradient>
    <filter id="shadow-sandboxBugBoard" x="0" y="0" width="1600" height="900" filterUnits="userSpaceOnUse" color-interpolation-filters="sRGB">
      <feDropShadow dx="0" dy="20" stdDeviation="18" flood-color="#3B245F" flood-opacity="0.22"/>
    </filter>
  </defs>
  <rect width="1600" height="900" rx="38" fill="url(#bg)"/>
  <rect width="1600" height="900" rx="38" fill="url(#glow)"/>
  <g opacity="0.10" stroke="#FFFFFF">
    <path d="M0 200H1600"/>
    <path d="M0 520H1600"/>
    <path d="M320 0V900"/>
    <path d="M1120 0V900"/>
  </g>
  <text x="120" y="318" fill="#FFFFFF" font-size="128" font-family="Arial, Helvetica, sans-serif" font-weight="800" letter-spacing="-5">Sandbox</text>
  <text x="120" y="446" fill="#FFFFFF" font-size="128" font-family="Arial, Helvetica, sans-serif" font-weight="800" letter-spacing="-5">Bug Hunt</text>
  <text x="126" y="548" fill="#FFF4ED" font-size="46" font-family="Arial, Helvetica, sans-serif" font-weight="600" textLength="790" lengthAdjust="spacingAndGlyphs">Spec-Driven / ReAct / 5 Critical Bugs</text>

  <rect x="120" y="642" width="238" height="64" rx="32" fill="rgba(255,255,255,0.18)"/>
  <text x="164" y="685" fill="#FFFFFF" font-size="34" font-family="Arial, Helvetica, sans-serif" font-weight="700">Bug Notes</text>

  <g filter="url(#shadow-sandboxBugBoard)">
    <rect x="1040" y="150" width="320" height="320" rx="56" fill="#FFFDFC"/>
  </g>

  <rect x="1104" y="208" width="192" height="52" rx="16" fill="#0F766E"/>
  <text x="1152" y="241" fill="#FFFFFF" font-size="24" font-family="Arial, Helvetica, sans-serif" font-weight="800">SPEC DRIVEN</text>

  <rect x="1104" y="286" width="72" height="52" rx="16" fill="#EA580C"/>
  <text x="1130" y="320" fill="#FFFFFF" font-size="26" font-family="Arial, Helvetica, sans-serif" font-weight="800">1</text>
  <rect x="1184" y="286" width="72" height="52" rx="16" fill="#D97706"/>
  <text x="1210" y="320" fill="#FFFFFF" font-size="26" font-family="Arial, Helvetica, sans-serif" font-weight="800">2</text>
  <rect x="1264" y="286" width="72" height="52" rx="16" fill="#2563EB"/>
  <text x="1290" y="320" fill="#FFFFFF" font-size="26" font-family="Arial, Helvetica, sans-serif" font-weight="800">3</text>

  <rect x="1144" y="352" width="72" height="52" rx="16" fill="#0891B2"/>
  <text x="1170" y="386" fill="#FFFFFF" font-size="26" font-family="Arial, Helvetica, sans-serif" font-weight="800">4</text>
  <rect x="1224" y="352" width="72" height="52" rx="16" fill="#0F766E"/>
  <text x="1250" y="386" fill="#FFFFFF" font-size="26" font-family="Arial, Helvetica, sans-serif" font-weight="800">5</text>

  <path d="M1110 434H1290" stroke="#E2E8F0" stroke-width="18" stroke-linecap="round"/>
  <path d="M1110 434H1160" stroke="#EA580C" stroke-width="18" stroke-linecap="round"/>
  <path d="M1174 434H1224" stroke="#D97706" stroke-width="18" stroke-linecap="round"/>
  <path d="M1238 434H1290" stroke="#2563EB" stroke-width="18" stroke-linecap="round"/>
</svg>
