<svg width="1600" height="900" viewBox="0 0 1600 900" fill="none" xmlns="http://www.w3.org/2000/svg">
  <defs>
    <linearGradient id="bg" x1="40" y1="20" x2="1560" y2="880" gradientUnits="userSpaceOnUse">
      <stop stop-color="#7C3AED"/>
      <stop offset="1" stop-color="#2563EB"/>
    </linearGradient>
    <linearGradient id="bg-inner-skillStd" x1="1074" y1="184" x2="1326" y2="436" gradientUnits="userSpaceOnUse">
      <stop stop-color="#7C3AED"/>
      <stop offset="1" stop-color="#2563EB"/>
    </linearGradient>
    <radialGradient id="glow" cx="0" cy="0" r="1" gradientUnits="userSpaceOnUse" gradientTransform="translate(1185 190) rotate(15) scale(400 220)">
      <stop stop-color="#E7DEFF" stop-opacity="0.18"/>
      <stop offset="1" stop-color="#E7DEFF" stop-opacity="0"/>
    </radialGradient>
    <filter id="shadow-skillStdBoard" x="0" y="0" width="1600" height="900" filterUnits="userSpaceOnUse" color-interpolation-filters="sRGB">
      <feDropShadow dx="0" dy="20" stdDeviation="18" flood-color="#2D2B6F" flood-opacity="0.22"/>
    </filter>
  </defs>
  <rect width="1600" height="900" rx="38" fill="url(#bg)"/>
  <rect width="1600" height="900" rx="38" fill="url(#glow)"/>
  <g opacity="0.10" stroke="#FFFFFF">
    <path d="M0 200H1600"/>
    <path d="M0 520H1600"/>
    <path d="M320 0V900"/>
    <path d="M1120 0V900"/>
  </g>
  <text x="120" y="318" fill="#FFFFFF" font-size="128" font-family="Arial, Helvetica, sans-serif" font-weight="800" letter-spacing="-5">Skill</text>
  <text x="120" y="446" fill="#FFFFFF" font-size="128" font-family="Arial, Helvetica, sans-serif" font-weight="800" letter-spacing="-5">Standardization</text>
  <text x="126" y="548" fill="#EEF3FF" font-size="46" font-family="Arial, Helvetica, sans-serif" font-weight="600" textLength="790" lengthAdjust="spacingAndGlyphs">JSON Schema / Tool Calling / OpenAI Compatible</text>

  <rect x="120" y="642" width="300" height="64" rx="32" fill="rgba(255,255,255,0.18)"/>
  <text x="164" y="685" fill="#FFFFFF" font-size="34" font-family="Arial, Helvetica, sans-serif" font-weight="700">Schema Notes</text>

  <g filter="url(#shadow-skillStdBoard)">
    <rect x="1040" y="150" width="320" height="320" rx="56" fill="#FFFDFC"/>
  </g>

  <rect x="1088" y="208" width="224" height="52" rx="16" fill="#312E81"/>
  <text x="1128" y="241" fill="#FFFFFF" font-size="24" font-family="Arial, Helvetica, sans-serif" font-weight="700">private arguments[]</text>

  <path d="M1200 272V296" stroke="#94A3B8" stroke-width="10" stroke-linecap="round"/>
  <polygon points="1200,308 1190,292 1210,292" fill="#94A3B8"/>

  <rect x="1088" y="314" width="224" height="52" rx="16" fill="#1D4ED8"/>
  <text x="1126" y="347" fill="#FFFFFF" font-size="24" font-family="Arial, Helvetica, sans-serif" font-weight="700">JSON Schema + x-*</text>

  <path d="M1200 378V402" stroke="#94A3B8" stroke-width="10" stroke-linecap="round"/>
  <polygon points="1200,414 1190,398 1210,398" fill="#94A3B8"/>

  <rect x="1088" y="420" width="224" height="52" rx="16" fill="#7C3AED"/>
  <text x="1132" y="453" fill="#FFFFFF" font-size="24" font-family="Arial, Helvetica, sans-serif" font-weight="700">Agent Tool Ready</text>
</svg>
