<svg width="1600" height="900" viewBox="0 0 1600 900" fill="none" xmlns="http://www.w3.org/2000/svg">
  <defs>
    <linearGradient id="bg" x1="40" y1="20" x2="1560" y2="880" gradientUnits="userSpaceOnUse">
      <stop stop-color="#5843FF"/>
      <stop offset="1" stop-color="#FF5D8E"/>
    </linearGradient>
    <linearGradient id="bg-inner-motionBot" x1="1074" y1="184" x2="1326" y2="436" gradientUnits="userSpaceOnUse">
      <stop stop-color="#5843FF"/>
      <stop offset="1" stop-color="#FF5D8E"/>
    </linearGradient>
    <radialGradient id="glow" cx="0" cy="0" r="1" gradientUnits="userSpaceOnUse" gradientTransform="translate(1180 170) rotate(15) scale(430 230)">
      <stop stop-color="#FFD1EA" stop-opacity="0.24"/>
      <stop offset="1" stop-color="#FFD1EA" stop-opacity="0"/>
    </radialGradient>
    <filter id="shadow-studioBot" x="0" y="0" width="1600" height="900" filterUnits="userSpaceOnUse" color-interpolation-filters="sRGB">
      <feDropShadow dx="0" dy="20" stdDeviation="18" flood-color="#331C78" flood-opacity="0.22"/>
    </filter>
  </defs>
  <rect width="1600" height="900" rx="38" fill="url(#bg)"/>
  <rect width="1600" height="900" rx="38" fill="url(#glow)"/>
  <g opacity="0.10" stroke="#FFFFFF">
    <path d="M0 200H1600"/>
    <path d="M0 520H1600"/>
    <path d="M320 0V900"/>
    <path d="M1120 0V900"/>
  </g>
  <text x="120" y="318" fill="#FFFFFF" font-size="128" font-family="Arial, Helvetica, sans-serif" font-weight="800" letter-spacing="-5">Studio</text>
  <text x="120" y="446" fill="#FFFFFF" font-size="128" font-family="Arial, Helvetica, sans-serif" font-weight="800" letter-spacing="-5">Motion</text>
  <text x="126" y="548" fill="#FFF0F7" font-size="48" font-family="Arial, Helvetica, sans-serif" font-weight="600" textLength="790" lengthAdjust="spacingAndGlyphs">Crash Fix / UI Cleanup / Positioning / Interaction</text>
  
  <rect x="120" y="642" width="224" height="64" rx="32" fill="rgba(255,255,255,0.18)"/>
  <text x="164" y="685" fill="#FFFFFF" font-size="34" font-family="Arial, Helvetica, sans-serif" font-weight="700">Dev Log</text>
  
  
  <g filter="url(#shadow-studioBot)">
    <rect x="1040" y="150" width="320" height="320" rx="56" fill="#FFFDFC"/>
  </g>
  <circle cx="1200" cy="310" r="98" fill="#4E32C0"/>
  <path d="M1156 260H1242L1221 299H1258V368H1138V299H1178L1156 260Z" fill="#FFC341"/>
  <rect x="1228" y="262" width="30" height="106" rx="8" fill="#FF4D7A"/>
  <rect x="1176" y="303" width="28" height="18" rx="9" fill="#FFFFFF"/>
  <rect x="1216" y="303" width="28" height="18" rx="9" fill="#FFFFFF"/>
</svg>