<svg width="1600" height="900" viewBox="0 0 1600 900" fill="none" xmlns="http://www.w3.org/2000/svg">
  <defs>
    <linearGradient id="bg" x1="40" y1="20" x2="1560" y2="880" gradientUnits="userSpaceOnUse">
      <stop stop-color="#0FBF9F"/>
      <stop offset="1" stop-color="#1E90FF"/>
    </linearGradient>
    <linearGradient id="bg-inner-motionBot" x1="1074" y1="184" x2="1326" y2="436" gradientUnits="userSpaceOnUse">
      <stop stop-color="#0FBF9F"/>
      <stop offset="1" stop-color="#1E90FF"/>
    </linearGradient>
    <radialGradient id="glow" cx="0" cy="0" r="1" gradientUnits="userSpaceOnUse" gradientTransform="translate(1180 170) rotate(15) scale(420 210)">
      <stop stop-color="#D6FFF8" stop-opacity="0.18"/>
      <stop offset="1" stop-color="#D6FFF8" stop-opacity="0"/>
    </radialGradient>
    <filter id="shadow-routing" x="0" y="0" width="1600" height="900" filterUnits="userSpaceOnUse" color-interpolation-filters="sRGB">
      <feDropShadow dx="0" dy="20" stdDeviation="18" flood-color="#0E4C67" flood-opacity="0.22"/>
    </filter>
  </defs>
  <rect width="1600" height="900" rx="38" fill="url(#bg)"/>
  <rect width="1600" height="900" rx="38" fill="url(#glow)"/>
  <g opacity="0.10" stroke="#FFFFFF">
    <path d="M0 200H1600"/>
    <path d="M0 520H1600"/>
    <path d="M320 0V900"/>
    <path d="M1120 0V900"/>
  </g>
  <text x="120" y="318" fill="#FFFFFF" font-size="128" font-family="Arial, Helvetica, sans-serif" font-weight="800" letter-spacing="-5">Intent</text>
  <text x="120" y="446" fill="#FFFFFF" font-size="128" font-family="Arial, Helvetica, sans-serif" font-weight="800" letter-spacing="-5">System</text>
  <text x="126" y="548" fill="#E8FFFE" font-size="48" font-family="Arial, Helvetica, sans-serif" font-weight="600" textLength="790" lengthAdjust="spacingAndGlyphs">Recognition / Classification / Routing</text>
  
  <rect x="120" y="642" width="248" height="64" rx="32" fill="rgba(255,255,255,0.18)"/>
  <text x="164" y="685" fill="#FFFFFF" font-size="34" font-family="Arial, Helvetica, sans-serif" font-weight="700">NLP Notes</text>
  
  
  <g filter="url(#shadow-routing)">
    <rect x="1040" y="150" width="320" height="320" rx="56" fill="#FFFDFC"/>
  </g>
  <circle cx="1200" cy="254" r="56" fill="#0FBF9F" opacity="0.24"/>
  <rect x="1112" y="326" width="176" height="22" rx="11" fill="#1E90FF"/>
  <rect x="1112" y="374" width="126" height="22" rx="11" fill="#0FBF9F"/>
  <rect x="1112" y="422" width="212" height="22" rx="11" fill="#1D3557"/>
</svg>