<svg width="1600" height="900" viewBox="0 0 1600 900" fill="none" xmlns="http://www.w3.org/2000/svg">
  <defs>
    <linearGradient id="bg" x1="40" y1="20" x2="1560" y2="880" gradientUnits="userSpaceOnUse">
      <stop stop-color="#24C6A2"/>
      <stop offset="1" stop-color="#2F80ED"/>
    </linearGradient>
    <linearGradient id="bg-inner-motionBot" x1="1074" y1="184" x2="1326" y2="436" gradientUnits="userSpaceOnUse">
      <stop stop-color="#24C6A2"/>
      <stop offset="1" stop-color="#2F80ED"/>
    </linearGradient>
    <radialGradient id="glow" cx="0" cy="0" r="1" gradientUnits="userSpaceOnUse" gradientTransform="translate(1190 200) rotate(15) scale(390 220)">
      <stop stop-color="#D8FFF8" stop-opacity="0.18"/>
      <stop offset="1" stop-color="#D8FFF8" stop-opacity="0"/>
    </radialGradient>
    <filter id="shadow-dataPrep" x="0" y="0" width="1600" height="900" filterUnits="userSpaceOnUse" color-interpolation-filters="sRGB">
      <feDropShadow dx="0" dy="20" stdDeviation="18" flood-color="#1C4C67" flood-opacity="0.22"/>
    </filter>
  </defs>
  <rect width="1600" height="900" rx="38" fill="url(#bg)"/>
  <rect width="1600" height="900" rx="38" fill="url(#glow)"/>
  <g opacity="0.10" stroke="#FFFFFF">
    <path d="M0 200H1600"/>
    <path d="M0 520H1600"/>
    <path d="M320 0V900"/>
    <path d="M1120 0V900"/>
  </g>
  <text x="120" y="318" fill="#FFFFFF" font-size="128" font-family="Arial, Helvetica, sans-serif" font-weight="800" letter-spacing="-5">Data</text>
  <text x="120" y="446" fill="#FFFFFF" font-size="128" font-family="Arial, Helvetica, sans-serif" font-weight="800" letter-spacing="-5">Prep</text>
  <text x="126" y="548" fill="#F1FFFD" font-size="48" font-family="Arial, Helvetica, sans-serif" font-weight="600" textLength="790" lengthAdjust="spacingAndGlyphs">Cleaning / Structuring / Inference / Upgrade</text>
  
  <rect x="120" y="642" width="284" height="64" rx="32" fill="rgba(255,255,255,0.18)"/>
  <text x="164" y="685" fill="#FFFFFF" font-size="34" font-family="Arial, Helvetica, sans-serif" font-weight="700">Data Upgrade</text>
  
  
  <g filter="url(#shadow-dataPrep)">
    <rect x="1040" y="150" width="320" height="320" rx="56" fill="#FFFDFC"/>
  </g>
  <rect x="1104" y="226" width="192" height="38" rx="12" fill="#173A57"/>
  <rect x="1104" y="282" width="192" height="38" rx="12" fill="#24C6A2"/>
  <rect x="1104" y="338" width="192" height="38" rx="12" fill="#2F80ED"/>
  <circle cx="1308" cy="418" r="34" fill="rgba(255,255,255,0.16)"/>
</svg>