<svg width="1600" height="900" viewBox="0 0 1600 900" fill="none" xmlns="http://www.w3.org/2000/svg">
  <defs>
    <linearGradient id="bg" x1="40" y1="20" x2="1560" y2="880" gradientUnits="userSpaceOnUse">
      <stop stop-color="#4ED3A3"/>
      <stop offset="1" stop-color="#5B9BFF"/>
    </linearGradient>
    <linearGradient id="bg-inner-motionBot" x1="1074" y1="184" x2="1326" y2="436" gradientUnits="userSpaceOnUse">
      <stop stop-color="#4ED3A3"/>
      <stop offset="1" stop-color="#5B9BFF"/>
    </linearGradient>
    <radialGradient id="glow" cx="0" cy="0" r="1" gradientUnits="userSpaceOnUse" gradientTransform="translate(430 170) rotate(15) scale(470 240)">
      <stop stop-color="#B4FFF1" stop-opacity="0.22"/>
      <stop offset="1" stop-color="#B4FFF1" stop-opacity="0"/>
    </radialGradient>
    <filter id="shadow-motionBot" x="0" y="0" width="1600" height="900" filterUnits="userSpaceOnUse" color-interpolation-filters="sRGB">
      <feDropShadow dx="0" dy="20" stdDeviation="18" flood-color="#173B54" flood-opacity="0.22"/>
    </filter>
  </defs>
  <rect width="1600" height="900" rx="38" fill="url(#bg)"/>
  <rect width="1600" height="900" rx="38" fill="url(#glow)"/>
  <g opacity="0.10" stroke="#FFFFFF">
    <path d="M0 200H1600"/>
    <path d="M0 520H1600"/>
    <path d="M320 0V900"/>
    <path d="M1120 0V900"/>
  </g>
  <text x="120" y="318" fill="#FFFFFF" font-size="128" font-family="Arial, Helvetica, sans-serif" font-weight="800" letter-spacing="-5">Motion</text>
  <text x="120" y="446" fill="#FFFFFF" font-size="128" font-family="Arial, Helvetica, sans-serif" font-weight="800" letter-spacing="-5">Library</text>
  <text x="126" y="548" fill="#ECFFFB" font-size="48" font-family="Arial, Helvetica, sans-serif" font-weight="600" textLength="790" lengthAdjust="spacingAndGlyphs">Architecture / Parameters / Layout / Debugging</text>
  
  <rect x="120" y="642" width="332" height="64" rx="32" fill="rgba(255,255,255,0.18)"/>
  <text x="164" y="685" fill="#FFFFFF" font-size="34" font-family="Arial, Helvetica, sans-serif" font-weight="700">Internship Notes</text>
  
  
  <g filter="url(#shadow-motionBot)">
    <rect x="1040" y="150" width="320" height="320" rx="56" fill="#FFFDFC"/>
  </g>
  <rect x="1074" y="184" width="252" height="252" rx="36" fill="url(#bg-inner-motionBot)" opacity="0.16"/>
  <rect x="1130" y="232" width="84" height="84" rx="20" fill="#1FAF8D"/>
  <rect x="1228" y="232" width="84" height="84" rx="20" fill="#4B6DFF"/>
  <rect x="1130" y="342" width="182" height="78" rx="18" fill="#163D58" opacity="0.86"/>
  <rect x="1166" y="268" width="12" height="12" rx="6" fill="#FFFFFF"/>
  <rect x="1264" y="268" width="12" height="12" rx="6" fill="#FFFFFF"/>
  <rect x="1166" y="377" width="112" height="12" rx="6" fill="#FFFFFF" opacity="0.92"/>
</svg>