<svg xmlns="http://www.w3.org/2000/svg" width="1200" height="630" viewBox="0 0 1200 630">
  <defs>
    <linearGradient id="bg" x1="0" y1="0" x2="1" y2="1">
      <stop offset="0%" stop-color="#0f172a"/>
      <stop offset="50%" stop-color="#1e293b"/>
      <stop offset="100%" stop-color="#334155"/>
    </linearGradient>
    <linearGradient id="card" x1="0" y1="0" x2="1" y2="1">
      <stop offset="0%" stop-color="#f8fafc"/>
      <stop offset="100%" stop-color="#e2e8f0"/>
    </linearGradient>
    <linearGradient id="accent" x1="0" y1="0" x2="1" y2="0">
      <stop offset="0%" stop-color="#22d3ee"/>
      <stop offset="100%" stop-color="#38bdf8"/>
    </linearGradient>
  </defs>

  <rect width="1200" height="630" fill="url(#bg)"/>
  <circle cx="1030" cy="120" r="180" fill="#0ea5e9" opacity="0.12"/>
  <circle cx="180" cy="520" r="220" fill="#22d3ee" opacity="0.10"/>

  <rect x="120" y="95" width="960" height="440" rx="28" fill="#0b1220" opacity="0.72" stroke="#38bdf8" stroke-opacity="0.35"/>

  <rect x="170" y="170" width="220" height="300" rx="18" fill="#1f2937" stroke="#475569"/>
  <rect x="200" y="205" width="160" height="20" rx="10" fill="url(#accent)"/>
  <rect x="200" y="245" width="130" height="14" rx="7" fill="#94a3b8"/>
  <rect x="200" y="275" width="150" height="14" rx="7" fill="#64748b"/>
  <rect x="200" y="305" width="120" height="14" rx="7" fill="#64748b"/>
  <rect x="200" y="345" width="90" height="90" rx="12" fill="#111827" stroke="#94a3b8"/>
  <path d="M214 360h62v62h-62zM230 376h30v30h-30z" fill="#e2e8f0"/>

  <rect x="450" y="165" width="560" height="315" rx="20" fill="url(#card)"/>
  <text x="490" y="235" fill="#0f172a" font-family="Segoe UI, Arial, sans-serif" font-size="44" font-weight="700">
    RAG Reading Notes
  </text>
  <text x="490" y="285" fill="#334155" font-family="Segoe UI, Arial, sans-serif" font-size="30" font-weight="600">
    Borrowing Card for AI
  </text>
  <text x="490" y="345" fill="#475569" font-family="Segoe UI, Arial, sans-serif" font-size="24">
    Parametric + Non-parametric Memory
  </text>
  <text x="490" y="385" fill="#475569" font-family="Segoe UI, Arial, sans-serif" font-size="24">
    Retrieval as Geometry, Not Keyword Match
  </text>
  <rect x="490" y="425" width="360" height="16" rx="8" fill="url(#accent)"/>

  <text x="120" y="585" fill="#bae6fd" font-family="Segoe UI, Arial, sans-serif" font-size="24">
    wwxdsg blog · March 2026
  </text>
</svg>
