<svg width="1600" height="900" viewBox="0 0 1600 900" fill="none" xmlns="http://www.w3.org/2000/svg">
  <defs>
    <linearGradient id="bg" x1="40" y1="20" x2="1560" y2="880" gradientUnits="userSpaceOnUse">
      <stop stop-color="#2563EB"/>
      <stop offset="1" stop-color="#EC4899"/>
    </linearGradient>
    <linearGradient id="bg-inner-subagent" x1="1074" y1="184" x2="1326" y2="436" gradientUnits="userSpaceOnUse">
      <stop stop-color="#2563EB"/>
      <stop offset="1" stop-color="#EC4899"/>
    </linearGradient>
    <radialGradient id="glow" cx="0" cy="0" r="1" gradientUnits="userSpaceOnUse" gradientTransform="translate(1190 190) rotate(15) scale(410 220)">
      <stop stop-color="#FFE0F1" stop-opacity="0.2"/>
      <stop offset="1" stop-color="#FFE0F1" stop-opacity="0"/>
    </radialGradient>
    <filter id="shadow-subagentBoard" x="0" y="0" width="1600" height="900" filterUnits="userSpaceOnUse" color-interpolation-filters="sRGB">
      <feDropShadow dx="0" dy="20" stdDeviation="18" flood-color="#2D215F" flood-opacity="0.22"/>
    </filter>
  </defs>
  <rect width="1600" height="900" rx="38" fill="url(#bg)"/>
  <rect width="1600" height="900" rx="38" fill="url(#glow)"/>
  <g opacity="0.10" stroke="#FFFFFF">
    <path d="M0 200H1600"/>
    <path d="M0 520H1600"/>
    <path d="M320 0V900"/>
    <path d="M1120 0V900"/>
  </g>
  <text x="120" y="318" fill="#FFFFFF" font-size="128" font-family="Arial, Helvetica, sans-serif" font-weight="800" letter-spacing="-5">Subagent</text>
  <text x="120" y="446" fill="#FFFFFF" font-size="128" font-family="Arial, Helvetica, sans-serif" font-weight="800" letter-spacing="-5">Notes</text>
  <text x="126" y="548" fill="#FFF1F7" font-size="48" font-family="Arial, Helvetica, sans-serif" font-weight="600" textLength="790" lengthAdjust="spacingAndGlyphs">Parallel Draft / Roles / Handoff / 503</text>

  <rect x="120" y="642" width="252" height="64" rx="32" fill="rgba(255,255,255,0.18)"/>
  <text x="164" y="685" fill="#FFFFFF" font-size="34" font-family="Arial, Helvetica, sans-serif" font-weight="700">Field Notes</text>

  <g filter="url(#shadow-subagentBoard)">
    <rect x="1040" y="150" width="320" height="320" rx="56" fill="#FFFDFC"/>
  </g>

  <rect x="1096" y="214" width="84" height="58" rx="18" fill="#2563EB"/>
  <text x="1116" y="252" fill="#FFFFFF" font-size="26" font-family="Arial, Helvetica, sans-serif" font-weight="800">MAIN</text>

  <rect x="1196" y="214" width="98" height="58" rx="18" fill="#7C3AED"/>
  <text x="1226" y="252" fill="#FFFFFF" font-size="26" font-family="Arial, Helvetica, sans-serif" font-weight="800">A1</text>

  <rect x="1096" y="298" width="84" height="58" rx="18" fill="#EC4899"/>
  <text x="1126" y="336" fill="#FFFFFF" font-size="26" font-family="Arial, Helvetica, sans-serif" font-weight="800">A2</text>

  <rect x="1196" y="298" width="98" height="58" rx="18" fill="#F97316"/>
  <text x="1226" y="336" fill="#FFFFFF" font-size="26" font-family="Arial, Helvetica, sans-serif" font-weight="800">A3</text>

  <path d="M1180 243H1196" stroke="#94A3B8" stroke-width="10" stroke-linecap="round"/>
  <path d="M1138 272V298" stroke="#94A3B8" stroke-width="10" stroke-linecap="round"/>
  <path d="M1244 272V298" stroke="#94A3B8" stroke-width="10" stroke-linecap="round"/>

  <path d="M1108 396H1296" stroke="#E2E8F0" stroke-width="18" stroke-linecap="round"/>
  <path d="M1108 396H1216" stroke="#2563EB" stroke-width="18" stroke-linecap="round"/>
  <circle cx="1248" cy="396" r="13" fill="#F97316"/>
  <circle cx="1284" cy="396" r="13" fill="#EC4899"/>
</svg>
