<svg width="1600" height="900" viewBox="0 0 1600 900" fill="none" xmlns="http://www.w3.org/2000/svg">
  <defs>
    <linearGradient id="bg" x1="40" y1="20" x2="1560" y2="880" gradientUnits="userSpaceOnUse">
      <stop stop-color="#B45309"/>
      <stop offset="1" stop-color="#0F766E"/>
    </linearGradient>
    <linearGradient id="bg-inner-twoReset" x1="1074" y1="184" x2="1326" y2="436" gradientUnits="userSpaceOnUse">
      <stop stop-color="#B45309"/>
      <stop offset="1" stop-color="#0F766E"/>
    </linearGradient>
    <radialGradient id="glow" cx="0" cy="0" r="1" gradientUnits="userSpaceOnUse" gradientTransform="translate(1190 200) rotate(15) scale(400 220)">
      <stop stop-color="#FFF0D8" stop-opacity="0.18"/>
      <stop offset="1" stop-color="#FFF0D8" stop-opacity="0"/>
    </radialGradient>
    <filter id="shadow-twoResetBoard" x="0" y="0" width="1600" height="900" filterUnits="userSpaceOnUse" color-interpolation-filters="sRGB">
      <feDropShadow dx="0" dy="20" stdDeviation="18" flood-color="#3F2A12" flood-opacity="0.22"/>
    </filter>
  </defs>
  <rect width="1600" height="900" rx="38" fill="url(#bg)"/>
  <rect width="1600" height="900" rx="38" fill="url(#glow)"/>
  <g opacity="0.10" stroke="#FFFFFF">
    <path d="M0 200H1600"/>
    <path d="M0 520H1600"/>
    <path d="M320 0V900"/>
    <path d="M1120 0V900"/>
  </g>
  <text x="120" y="318" fill="#FFFFFF" font-size="128" font-family="Arial, Helvetica, sans-serif" font-weight="800" letter-spacing="-5">Scope Reset</text>
  <text x="120" y="446" fill="#FFFFFF" font-size="128" font-family="Arial, Helvetica, sans-serif" font-weight="800" letter-spacing="-5">Architecture Reset</text>
  <text x="126" y="548" fill="#FFF7ED" font-size="46" font-family="Arial, Helvetica, sans-serif" font-weight="600" textLength="790" lengthAdjust="spacingAndGlyphs">Product Focus / Code Execution / Best Practice</text>

  <rect x="120" y="642" width="266" height="64" rx="32" fill="rgba(255,255,255,0.18)"/>
  <text x="164" y="685" fill="#FFFFFF" font-size="34" font-family="Arial, Helvetica, sans-serif" font-weight="700">Reset Notes</text>

  <g filter="url(#shadow-twoResetBoard)">
    <rect x="1040" y="150" width="320" height="320" rx="56" fill="#FFFDFC"/>
  </g>

  <rect x="1090" y="208" width="110" height="54" rx="16" fill="#B45309"/>
  <text x="1120" y="243" fill="#FFFFFF" font-size="24" font-family="Arial, Helvetica, sans-serif" font-weight="800">SCOPE</text>
  <rect x="1210" y="208" width="110" height="54" rx="16" fill="#0F766E"/>
  <text x="1242" y="243" fill="#FFFFFF" font-size="24" font-family="Arial, Helvetica, sans-serif" font-weight="800">ARCH</text>

  <path d="M1205 284V314" stroke="#94A3B8" stroke-width="10" stroke-linecap="round"/>

  <circle cx="1205" cy="346" r="38" fill="#F8FAFC" stroke="#CBD5E1" stroke-width="10"/>
  <text x="1164" y="356" fill="#0F172A" font-size="22" font-family="Arial, Helvetica, sans-serif" font-weight="800">RESET</text>

  <path d="M1205 388V414" stroke="#94A3B8" stroke-width="10" stroke-linecap="round"/>
  <polygon points="1205,426 1193,408 1217,408" fill="#94A3B8"/>

  <rect x="1090" y="430" width="230" height="42" rx="14" fill="#E2E8F0"/>
  <text x="1142" y="458" fill="#0F172A" font-size="22" font-family="Arial, Helvetica, sans-serif" font-weight="700">focus on core path</text>

  <path d="M1102 300H1168" stroke="#F59E0B" stroke-width="12" stroke-linecap="round"/>
  <path d="M1242 300H1308" stroke="#14B8A6" stroke-width="12" stroke-linecap="round"/>
</svg>
