<svg width="1600" height="900" viewBox="0 0 1600 900" fill="none" xmlns="http://www.w3.org/2000/svg">
  <defs>
    <linearGradient id="bg" x1="40" y1="20" x2="1560" y2="880" gradientUnits="userSpaceOnUse">
      <stop stop-color="#0F766E"/>
      <stop offset="1" stop-color="#0EA5E9"/>
    </linearGradient>
    <radialGradient id="glow" cx="0" cy="0" r="1" gradientUnits="userSpaceOnUse" gradientTransform="translate(1188 192) rotate(16) scale(410 220)">
      <stop stop-color="#D5FBFF" stop-opacity="0.20"/>
      <stop offset="1" stop-color="#D5FBFF" stop-opacity="0"/>
    </radialGradient>
    <filter id="shadow-upload" x="0" y="0" width="1600" height="900" filterUnits="userSpaceOnUse" color-interpolation-filters="sRGB">
      <feDropShadow dx="0" dy="20" stdDeviation="18" flood-color="#114A61" flood-opacity="0.22"/>
    </filter>
  </defs>
  <rect width="1600" height="900" rx="38" fill="url(#bg)"/>
  <rect width="1600" height="900" rx="38" fill="url(#glow)"/>
  <g opacity="0.10" stroke="#FFFFFF">
    <path d="M0 200H1600"/>
    <path d="M0 520H1600"/>
    <path d="M320 0V900"/>
    <path d="M1120 0V900"/>
  </g>
  <text x="120" y="318" fill="#FFFFFF" font-size="128" font-family="Arial, Helvetica, sans-serif" font-weight="800" letter-spacing="-5">Upload</text>
  <text x="120" y="446" fill="#FFFFFF" font-size="128" font-family="Arial, Helvetica, sans-serif" font-weight="800" letter-spacing="-5">Flow</text>
  <text x="126" y="548" fill="#E6FBFF" font-size="46" font-family="Arial, Helvetica, sans-serif" font-weight="600" textLength="790" lengthAdjust="spacingAndGlyphs">CSV / Structure / Melt / Preview / Session</text>

  <rect x="120" y="642" width="288" height="64" rx="32" fill="rgba(255,255,255,0.18)"/>
  <text x="164" y="685" fill="#FFFFFF" font-size="34" font-family="Arial, Helvetica, sans-serif" font-weight="700">Day One</text>

  <g filter="url(#shadow-upload)">
    <rect x="1040" y="150" width="320" height="320" rx="56" fill="#FFFDFC"/>
  </g>

  <rect x="1100" y="212" width="200" height="54" rx="18" fill="#CCFBF1"/>
  <text x="1160" y="247" fill="#115E59" font-size="26" font-family="Arial, Helvetica, sans-serif" font-weight="800">CSV</text>

  <path d="M1200 276V320" stroke="#0F766E" stroke-width="16" stroke-linecap="round"/>
  <path d="M1184 304L1200 320L1216 304" stroke="#0F766E" stroke-width="16" stroke-linecap="round" stroke-linejoin="round"/>

  <rect x="1092" y="338" width="216" height="86" rx="22" fill="#F0FDFA" stroke="#99F6E4" stroke-width="8"/>
  <path d="M1132 370H1268" stroke="#14B8A6" stroke-width="12" stroke-linecap="round"/>
  <path d="M1132 398H1208" stroke="#0EA5E9" stroke-width="12" stroke-linecap="round"/>
  <path d="M1224 398H1268" stroke="#14B8A6" stroke-width="12" stroke-linecap="round"/>
</svg>
