<svg width="1600" height="900" viewBox="0 0 1600 900" fill="none" xmlns="http://www.w3.org/2000/svg">
  <defs>
    <linearGradient id="bg" x1="40" y1="20" x2="1560" y2="880" gradientUnits="userSpaceOnUse">
      <stop stop-color="#7C2D12"/>
      <stop offset="1" stop-color="#B91C1C"/>
    </linearGradient>
    <radialGradient id="glow" cx="0" cy="0" r="1" gradientUnits="userSpaceOnUse" gradientTransform="translate(1188 190) rotate(14) scale(410 220)">
      <stop stop-color="#FFD7C7" stop-opacity="0.18"/>
      <stop offset="1" stop-color="#FFD7C7" stop-opacity="0"/>
    </radialGradient>
    <filter id="shadow-chat" x="0" y="0" width="1600" height="900" filterUnits="userSpaceOnUse" color-interpolation-filters="sRGB">
      <feDropShadow dx="0" dy="20" stdDeviation="18" flood-color="#58221B" flood-opacity="0.22"/>
    </filter>
  </defs>
  <rect width="1600" height="900" rx="38" fill="url(#bg)"/>
  <rect width="1600" height="900" rx="38" fill="url(#glow)"/>
  <g opacity="0.10" stroke="#FFFFFF">
    <path d="M0 200H1600"/>
    <path d="M0 520H1600"/>
    <path d="M320 0V900"/>
    <path d="M1120 0V900"/>
  </g>
  <text x="120" y="318" fill="#FFFFFF" font-size="128" font-family="Arial, Helvetica, sans-serif" font-weight="800" letter-spacing="-5">Chat</text>
  <text x="120" y="446" fill="#FFFFFF" font-size="128" font-family="Arial, Helvetica, sans-serif" font-weight="800" letter-spacing="-5">Polish</text>
  <text x="126" y="548" fill="#FFF0EA" font-size="46" font-family="Arial, Helvetica, sans-serif" font-weight="600" textLength="790" lengthAdjust="spacingAndGlyphs">Layout / Markdown / Sidebar / Input / Status</text>

  <rect x="120" y="642" width="304" height="64" rx="32" fill="rgba(255,255,255,0.18)"/>
  <text x="164" y="685" fill="#FFFFFF" font-size="34" font-family="Arial, Helvetica, sans-serif" font-weight="700">Day Three</text>

  <g filter="url(#shadow-chat)">
    <rect x="1040" y="150" width="320" height="320" rx="56" fill="#FFFDFC"/>
  </g>

  <rect x="1098" y="208" width="204" height="48" rx="20" fill="#FDE68A"/>
  <text x="1148" y="240" fill="#7C2D12" font-size="24" font-family="Arial, Helvetica, sans-serif" font-weight="800">Message</text>

  <path d="M1108 292H1292" stroke="#FCA5A5" stroke-width="14" stroke-linecap="round"/>
  <path d="M1108 332H1244" stroke="#FECACA" stroke-width="14" stroke-linecap="round"/>
  <path d="M1108 372H1280" stroke="#FCA5A5" stroke-width="14" stroke-linecap="round"/>

  <rect x="1148" y="398" width="104" height="28" rx="14" fill="#991B1B"/>
  <path d="M1248 412H1260" stroke="#991B1B" stroke-width="12" stroke-linecap="round"/>
</svg>
