<svg width="1600" height="900" viewBox="0 0 1600 900" fill="none" xmlns="http://www.w3.org/2000/svg">
  <defs>
    <linearGradient id="bg" x1="40" y1="20" x2="1560" y2="880" gradientUnits="userSpaceOnUse">
      <stop stop-color="#1D4ED8"/>
      <stop offset="1" stop-color="#EA580C"/>
    </linearGradient>
    <linearGradient id="bg-inner-crash" x1="1074" y1="184" x2="1326" y2="436" gradientUnits="userSpaceOnUse">
      <stop stop-color="#1D4ED8"/>
      <stop offset="1" stop-color="#EA580C"/>
    </linearGradient>
    <radialGradient id="glow" cx="0" cy="0" r="1" gradientUnits="userSpaceOnUse" gradientTransform="translate(1185 190) rotate(15) scale(410 220)">
      <stop stop-color="#FFE0CC" stop-opacity="0.18"/>
      <stop offset="1" stop-color="#FFE0CC" stop-opacity="0"/>
    </radialGradient>
    <filter id="shadow-crashBoard" x="0" y="0" width="1600" height="900" filterUnits="userSpaceOnUse" color-interpolation-filters="sRGB">
      <feDropShadow dx="0" dy="20" stdDeviation="18" flood-color="#3B245F" flood-opacity="0.22"/>
    </filter>
  </defs>
  <rect width="1600" height="900" rx="38" fill="url(#bg)"/>
  <rect width="1600" height="900" rx="38" fill="url(#glow)"/>
  <g opacity="0.10" stroke="#FFFFFF">
    <path d="M0 200H1600"/>
    <path d="M0 520H1600"/>
    <path d="M320 0V900"/>
    <path d="M1120 0V900"/>
  </g>
  <text x="120" y="318" fill="#FFFFFF" font-size="128" font-family="Arial, Helvetica, sans-serif" font-weight="800" letter-spacing="-5">Native</text>
  <text x="120" y="446" fill="#FFFFFF" font-size="128" font-family="Arial, Helvetica, sans-serif" font-weight="800" letter-spacing="-5">Crash</text>
  <text x="126" y="548" fill="#FFF4ED" font-size="46" font-family="Arial, Helvetica, sans-serif" font-weight="600" textLength="790" lengthAdjust="spacingAndGlyphs">Windows / FastAPI / ChromaDB / Load Order</text>

  <rect x="120" y="642" width="274" height="64" rx="32" fill="rgba(255,255,255,0.18)"/>
  <text x="164" y="685" fill="#FFFFFF" font-size="34" font-family="Arial, Helvetica, sans-serif" font-weight="700">Debug Log</text>

  <g filter="url(#shadow-crashBoard)">
    <rect x="1040" y="150" width="320" height="320" rx="56" fill="#FFFDFC"/>
  </g>

  <rect x="1098" y="218" width="90" height="44" rx="14" fill="#1D4ED8"/>
  <text x="1120" y="248" fill="#FFFFFF" font-size="24" font-family="Arial, Helvetica, sans-serif" font-weight="700">NUMPY</text>

  <rect x="1210" y="218" width="86" height="44" rx="14" fill="#EA580C"/>
  <text x="1228" y="248" fill="#FFFFFF" font-size="24" font-family="Arial, Helvetica, sans-serif" font-weight="700">HNSW</text>

  <path d="M1143 282V360" stroke="#1D4ED8" stroke-width="18" stroke-linecap="round"/>
  <path d="M1253 282V360" stroke="#EA580C" stroke-width="18" stroke-linecap="round"/>
  <path d="M1143 324H1253" stroke="#0F172A" stroke-width="16" stroke-linecap="round"/>

  <circle cx="1198" cy="392" r="32" fill="#DC2626"/>
  <path d="M1184 378L1212 406" stroke="#FFFFFF" stroke-width="10" stroke-linecap="round"/>
  <path d="M1212 378L1184 406" stroke="#FFFFFF" stroke-width="10" stroke-linecap="round"/>
</svg>
